<svg width="79" height="44" viewBox="0 0 79 44" fill="none" xmlns="http://www.w3.org/2000/svg">
<path fill-rule="evenodd" clip-rule="evenodd" d="M43.4352 8.49139C45.4526 8.21852 45.3339 13.5751 45.3562 14.7139C45.2152 15.7521 42.9976 15.6512 42.6046 14.708C42.2115 13.759 42.9087 10.2175 42.9902 9.0312L43.4352 8.49139Z" fill="#9AB8FE"/>
<path fill-rule="evenodd" clip-rule="evenodd" d="M28.1647 9.11423C26.3848 8.84136 27.0597 13.9546 27.297 15.0343C27.5417 16.1079 29.2624 16.5231 29.6184 15.5741C29.9669 14.6249 29.4403 10.6447 29.3958 9.3515L28.1647 9.11423Z" fill="#9F96D9"/>
<path fill-rule="evenodd" clip-rule="evenodd" d="M36.0855 30.3801C34.9285 30.1962 32.8371 35.8553 32.6888 37.101C32.5404 38.3408 34.5874 38.0738 35.2029 37.8366C35.8111 37.5993 35.0546 35.6714 36.3822 35.6714C37.7097 35.6714 37.5614 37.5103 38.303 37.8366C38.9632 38.0323 40.7356 38.0738 40.3648 36.8341C39.994 35.5883 36.9755 31.7267 36.0855 30.3801V30.3801Z" fill="#9F96D9"/>
<path fill-rule="evenodd" clip-rule="evenodd" d="M33.7802 15.5661C33.1098 15.954 34.1779 17.2883 34.0833 18.0124C33.9916 18.7314 32.4422 19.6313 33.2155 19.8899C33.9916 20.1433 37.908 19.9313 38.7313 19.5382C39.5574 19.1451 38.2195 18.271 38.1694 17.5314C38.1166 16.7866 39.1597 15.4108 38.4281 15.0851C37.6966 14.7592 34.7481 15.4678 33.7802 15.5661V15.5661Z" fill="#9AB8FE"/>
<path fill-rule="evenodd" clip-rule="evenodd" d="M29.4849 4.41955C30.769 3.37565 33.9398 1.92895 35.3232 2.00271C36.7067 2.07646 40.0362 1.62828 41.2608 3.90328C42.4854 6.17261 43.5645 13.1167 42.6709 15.6357C41.1352 16.9179 35.9256 19 35.9256 19C35.9256 19 31.0735 18.3022 28.6773 15.5506C27.6049 13.1167 27.7572 5.71874 29.4849 4.41955Z" fill="#9F96D9"/>
<path fill-rule="evenodd" clip-rule="evenodd" d="M37.0159 27.0002C37.3546 27.0371 43.7654 31.5771 44.7165 32.4426C45.6676 33.3082 44.026 33.1149 42.736 32.2124C41.459 31.3007 36.69 26.9634 37.0159 27.0002V27.0002Z" fill="#9AB8FE"/>
<path fill-rule="evenodd" clip-rule="evenodd" d="M31.8136 30.7479C31.6876 30.7301 28.0906 32.6995 27.4972 33.1088C26.9039 33.5181 27.5269 33.5893 28.2463 33.1977C28.9657 32.8004 31.9397 30.7597 31.8136 30.7479Z" fill="#9F96D9"/>
<path fill-rule="evenodd" clip-rule="evenodd" d="M44.6669 7.00968C46.0672 6.74183 45.9897 12.111 46 13.2598C45.9018 14.2956 44.3569 14.2004 44.0831 13.2479C43.8093 12.2956 44.2949 8.74187 44.3518 7.55732L44.6669 7.00968Z" fill="#C8C4B7"/>
<path fill-rule="evenodd" clip-rule="evenodd" d="M29.2933 8.01008C27.3623 7.74319 28.0944 12.8555 28.3519 13.929C28.6174 15.0084 30.4921 15.4175 30.8703 14.4687C31.2484 13.5257 30.6852 9.54613 30.6289 8.24731L29.2933 8.01008Z" fill="#C8C4B7"/>
<path fill-rule="evenodd" clip-rule="evenodd" d="M37.4044 36.0047C36.2474 35.8148 34.156 41.4739 34.0077 42.7197C33.8593 43.9653 35.9063 43.6984 36.5218 43.461C37.1374 43.2238 36.3735 41.29 37.7011 41.29C39.0287 41.29 38.8803 43.1348 39.6219 43.461C40.282 43.6568 42.0545 43.6984 41.6837 42.4526C41.3204 41.2129 38.2944 37.3452 37.4044 36.0047Z" fill="#9AB8FE"/>
<path fill-rule="evenodd" clip-rule="evenodd" d="M34.6501 13.6762C34.0915 14.1421 34.9816 15.7505 34.9028 16.6136C34.8263 17.4768 33.5352 18.5635 34.1796 18.8678C34.8263 19.1721 38.09 18.9175 38.7761 18.4455C39.4645 17.9735 38.3496 16.9303 38.3079 16.0361C38.2661 15.148 39.1331 13.4962 38.5234 13.1049C37.9138 12.7076 35.4568 13.5583 34.6501 13.6762V13.6762Z" fill="#9AB8FE"/>
<path fill-rule="evenodd" clip-rule="evenodd" d="M30.6863 2.52982C32.1251 1.43835 35.6776 -0.0742803 37.2277 0.00283488C38.7777 0.0858796 42.5083 -0.382741 43.8802 1.99002C45.2522 4.36872 46.4612 11.6294 45.46 14.2572C43.7468 15.6037 37.9026 17.7749 37.9026 17.7749C37.9026 17.7749 32.4663 17.0452 29.7815 14.1682C28.5801 11.6294 28.7506 3.89416 30.6863 2.52982V2.52982Z" fill="#9A6A6A"/>
<path fill-rule="evenodd" clip-rule="evenodd" d="M30.7976 6.0771C29.7296 6.32031 29.6332 7.52449 30.6863 7.52449C31.7395 7.52449 37.0942 6.32031 37.1164 6.0771C37.1312 5.83982 31.9619 5.85169 30.7976 6.0771Z" fill="#9AB8FE"/>
<path fill-rule="evenodd" clip-rule="evenodd" d="M37.7913 6.04742C38.1325 6.20165 43.8655 6.57536 44.6739 6.49825C45.4821 6.42706 43.6948 5.70931 42.6416 5.59661C41.5886 5.4839 37.4576 5.89912 37.7913 6.04742Z" fill="#9AB8FE"/>
<path fill-rule="evenodd" clip-rule="evenodd" d="M34.4094 12.8395C34.3871 13.047 36.1597 13.5513 37.0052 13.5394C37.8506 13.5275 39.46 12.9759 39.4823 12.7682C39.5045 12.5547 37.9026 12.2759 37.1312 12.2759C36.3673 12.2759 34.4317 12.6259 34.4094 12.8395V12.8395Z" fill="#9AB8FE"/>
<path fill-rule="evenodd" clip-rule="evenodd" d="M41.4773 27.8828C41.6627 27.9064 45.3116 30.825 45.853 31.3826C46.4018 31.9461 45.46 31.8216 44.7257 31.2343C43.9988 30.653 41.2844 27.8531 41.4773 27.8828V27.8828Z" fill="#9F96D9"/>
<path fill-rule="evenodd" clip-rule="evenodd" d="M33.1782 29.2056C33.0522 29.1937 29.4552 31.1631 28.8619 31.5724C28.2685 31.9758 28.8916 32.0529 29.6109 31.6554C30.3303 31.264 33.3043 29.2234 33.1782 29.2056Z" fill="#9AB8FE"/>
<path d="M18.24 31.44C16.98 34.66 14.34 36.29 10.32 36.33C8.58 36.33 7.04 35.96 5.7 35.22C4.36 34.46 3.32 33.42 2.58 32.1C1.84 30.78 1.47 29.26 1.47 27.54C1.47 25.86 1.83 24.36 2.55 23.04C3.29 21.72 4.33 20.69 5.67 19.95C7.03 19.19 8.59 18.81 10.35 18.81C11.61 18.81 12.74 19.05 13.74 19.53C14.74 19.99 15.52 20.63 16.08 21.45V19.11H17.88V24.21L16.26 24.27C15.64 22.99 14.86 22.06 13.92 21.48C12.98 20.9 11.83 20.61 10.47 20.61C9.17 20.61 8.02 20.92 7.02 21.54C6.04 22.14 5.28 22.96 4.74 24C4.2 25.04 3.93 26.21 3.93 27.51C3.93 28.91 4.21 30.14 4.77 31.2C5.33 32.26 6.11 33.08 7.11 33.66C8.11 34.24 9.23 34.53 10.47 34.53C11.83 34.53 13.04 34.21 14.1 33.57C15.18 32.93 15.96 31.92 16.44 30.54L18.24 31.44ZM37.6418 26.28C39.7218 26.64 41.2118 27.19 42.1118 27.93C43.0318 28.65 43.4918 29.79 43.4918 31.35C43.4918 32.25 43.2818 33.08 42.8618 33.84C42.4418 34.58 41.8218 35.18 41.0018 35.64C40.1818 36.08 39.2118 36.3 38.0918 36.3C37.0518 36.3 36.1018 36.09 35.2418 35.67C34.4018 35.25 33.7118 34.67 33.1718 33.93V36H31.2218V30.3H33.0218C33.1418 31.56 33.6418 32.59 34.5218 33.39C35.4218 34.17 36.5818 34.56 38.0018 34.56C39.0418 34.56 39.8518 34.31 40.4318 33.81C41.0118 33.31 41.3018 32.61 41.3018 31.71C41.3018 30.99 41.1718 30.43 40.9118 30.03C40.6518 29.61 40.2318 29.29 39.6518 29.07C39.0918 28.83 38.2818 28.62 37.2218 28.44L36.5018 28.32C34.8018 28.04 33.4818 27.5 32.5418 26.7C31.6018 25.88 31.1318 24.78 31.1318 23.4C31.1318 21.94 31.6118 20.81 32.5718 20.01C33.5318 19.19 34.8218 18.78 36.4418 18.78C37.3618 18.78 38.1918 18.94 38.9318 19.26C39.6918 19.56 40.3018 20 40.7618 20.58V19.11H42.6818V23.88H40.9118C40.5318 21.64 39.0818 20.52 36.5618 20.52C35.5418 20.52 34.7418 20.76 34.1618 21.24C33.6018 21.72 33.3218 22.36 33.3218 23.16C33.3218 24 33.6218 24.66 34.2218 25.14C34.8218 25.6 35.7318 25.94 36.9518 26.16L37.6418 26.28ZM55.1063 34.41H57.3863V20.7H55.1063V19.11H60.8363L66.3563 30.96L71.6063 19.11H77.4263V20.7H75.1463V34.41H77.4263V36H70.6163V34.41H72.8063V21.12L66.4463 35.13H65.6663L59.2163 21.12V34.41H61.4062V36H55.1063V34.41Z" fill="#D9CEF2"/>
</svg>
